# xmcd
#
# Track frame offsets:
#	150
#	29820
#	54439
#	79327
#	102120
#	124950
#	146440
#	176365
#	192137
#	228195
#
# Disc length: 3498 seconds
#
# Revision: 1
# Processed by: cddbd v1.4PL0 Copyright (c) Steve Scherf et al.
# Submitted via: EasyCDDAExtractor 5.1.0
#
DISCID=810da80a
DTITLE=Faramarz Assef - Termeh and Yaas
DYEAR=2002
DGENRE=Persian
TTITLE0=Entezaar
TTITLE1=Aroos
TTITLE2=Haji 3 (Hamoomi)
TTITLE3=Lolita
TTITLE4=Vaveila
TTITLE5=Az To Che Penhoon
TTITLE6=Haji 4 (Wild Things)
TTITLE7=Ey Doost
TTITLE8=Sooteh Delan
TTITLE9=Setareh (English Version)
EXTD=
EXTT0=
EXTT1=
EXTT2=
EXTT3=
EXTT4=
EXTT5=
EXTT6=
EXTT7=
EXTT8=
EXTT9=
PLAYORDER=
